<svg width="93" height="143" viewBox="0 0 93 143" fill="none" xmlns="http://www.w3.org/2000/svg">
<path d="M17 72.7458C14.7909 72.7458 13 70.9549 13 68.7458V23.0861C13 19.5258 8.69838 17.7397 6.17651 20.2527L1.17652 25.2353C0.423347 25.9858 0 27.0054 0 28.0687V81.7005C0 83.9096 1.79086 85.7005 4 85.7005H24.3472C25.4057 85.7005 26.421 85.2809 27.1707 84.5338L49.6428 62.14C52.1694 59.6222 50.3863 55.3067 46.8193 55.3067H40.1528C39.0943 55.3067 38.079 55.7262 37.3293 56.4733L22.1707 71.5791C21.421 72.3262 20.4057 72.7458 19.3472 72.7458H17Z" fill="#EEEEEE"/>
<path d="M14 130.045C11.7909 130.045 10 131.836 10 134.045V139C10 141.209 11.7909 143 14 143H80.3193C83.8862 143 85.6694 138.684 83.1428 136.167L78.1707 131.212C77.421 130.465 76.4057 130.045 75.3472 130.045H14Z" fill="#EEEEEE"/>
<path d="M93 92.0116C93 93.0749 92.5767 94.0945 91.8235 94.845L70.6707 115.924C69.921 116.671 68.9057 117.091 67.8472 117.091H60.6807C57.1138 117.091 55.3306 112.775 57.8573 110.257L86.1765 82.0368C88.6984 79.5237 93 81.3099 93 84.8701V92.0116Z" fill="#EEEEEE"/>
<path d="M21.3572 110.257C18.8306 112.775 20.6137 117.091 24.1807 117.091H31.8472C32.9057 117.091 33.921 116.671 34.6707 115.924L91.8041 58.9897C92.5687 58.2278 92.9974 57.1697 92.9628 56.0908C91.6309 14.5499 59.6919 0 37 0L9.68071 4.98399e-05C6.11373 5.63474e-05 4.3306 4.31557 6.85723 6.83341L11.8293 11.7881C12.579 12.5353 13.5943 12.9548 14.6528 12.9548H42.5C57.6144 12.9548 78.4341 29.0631 79.4605 50.6542C79.511 51.7163 79.0767 52.739 78.3235 53.4895L21.3572 110.257Z" fill="#EEEEEE"/>
<path d="M37 35.8746C37 39.7271 33.866 42.8502 30 42.8502C26.134 42.8502 23 39.7271 23 35.8746C23 32.022 26.134 28.899 30 28.899C33.866 28.899 37 32.022 37 35.8746Z" fill="#EEEEEE"/>
</svg>
